<svg width="146" height="40" viewBox="0 0 146 40" fill="none" xmlns="http://www.w3.org/2000/svg">
<path d="M60.3607 28.7237C59.0907 28.7237 57.9499 28.5187 56.9383 28.1087C55.9266 27.6987 55.0657 27.116 54.3553 26.3608C53.6666 25.6055 53.1285 24.6884 52.741 23.6095C52.3751 22.5305 52.1921 21.3221 52.1921 19.9842C52.1921 18.6463 52.3751 17.4379 52.741 16.359C53.1285 15.28 53.6666 14.3629 54.3553 13.6077C55.0657 12.8524 55.9159 12.2698 56.906 11.8598C57.9176 11.4498 59.0584 11.2448 60.3284 11.2448C62.0934 11.2448 63.514 11.6116 64.5902 12.3453C65.6664 13.079 66.4844 14.05 67.044 15.2585L63.8476 17.0063C63.5463 16.2942 63.1158 15.7224 62.5562 15.2908C62.0181 14.8377 61.2755 14.6111 60.3284 14.6111C59.1015 14.6111 58.1544 14.9671 57.4872 15.6793C56.8414 16.3914 56.5186 17.3624 56.5186 18.5924V21.3761C56.5186 22.5845 56.8414 23.5555 57.4872 24.2892C58.1544 25.0013 59.123 25.3574 60.393 25.3574C61.3831 25.3574 62.1687 25.1308 62.7499 24.6776C63.3526 24.2245 63.8369 23.6203 64.2028 22.865L67.3023 24.71C66.7427 25.8968 65.8925 26.8679 64.7517 27.6231C63.6324 28.3568 62.1687 28.7237 60.3607 28.7237Z" fill="white"/>
<path d="M84.2402 28.3353C83.2286 28.3353 82.4429 28.0871 81.8833 27.5908C81.3452 27.0729 81.0223 26.3608 80.9147 25.4545H80.7532C80.4519 26.4903 79.86 27.2995 78.9775 27.8821C78.095 28.4431 77.008 28.7237 75.7165 28.7237C74.0376 28.7237 72.7031 28.2813 71.713 27.3966C70.7228 26.5118 70.2278 25.2818 70.2278 23.7066C70.2278 20.3403 72.6923 18.6571 77.6214 18.6571H80.5595V17.5566C80.5595 16.4992 80.3012 15.7008 79.7846 15.1614C79.2681 14.6219 78.4286 14.3522 77.2663 14.3522C76.2116 14.3522 75.3614 14.5572 74.7156 14.9671C74.0699 15.3771 73.521 15.9058 73.069 16.5532L70.7121 14.5464C71.2287 13.6185 72.0574 12.8416 73.1982 12.2158C74.3605 11.5685 75.8564 11.2448 77.686 11.2448C79.8815 11.2448 81.5927 11.7627 82.8196 12.7985C84.068 13.8127 84.6922 15.334 84.6922 17.3624V25.2279H86.6617V28.3353H84.2402ZM77.1048 25.8753C78.095 25.8753 78.9129 25.6487 79.5586 25.1955C80.2259 24.7208 80.5595 24.0842 80.5595 23.2858V21.0524H77.7183C75.4582 21.0524 74.3282 21.7645 74.3282 23.1887V23.8361C74.3282 24.505 74.5757 25.0121 75.0708 25.3574C75.5658 25.7026 76.2439 25.8753 77.1048 25.8753Z" fill="white"/>
<path d="M89.232 28.3353V11.6332H93.3647V14.5787H93.5262C93.8921 13.6724 94.4517 12.8956 95.2051 12.2482C95.9799 11.5793 97.0454 11.2448 98.4014 11.2448C100.037 11.2448 101.361 11.7951 102.373 12.8956C103.406 13.9745 103.922 15.5282 103.922 17.5566V28.3353H99.7898V18.1392C99.7898 15.7224 98.7458 14.514 96.658 14.514C96.2275 14.514 95.8185 14.5679 95.4311 14.6758C95.0436 14.7837 94.6885 14.9564 94.3656 15.1937C94.0643 15.4095 93.8167 15.6793 93.623 16.0029C93.4508 16.3266 93.3647 16.715 93.3647 17.1682V28.3353H89.232Z" fill="white"/>
<path d="M116.017 28.3353C114.425 28.3353 113.251 27.9145 112.498 27.0729C111.745 26.2313 111.368 25.1416 111.368 23.8037V14.9024H106.525V11.6332H109.818C110.486 11.6332 110.959 11.5037 111.239 11.2448C111.519 10.9643 111.659 10.4787 111.659 9.78822V5.74219H115.501V11.6332H122.281V14.9024H115.501V25.0661H122.281V28.3353H116.017Z" fill="white"/>
<path d="M133.278 28.7237C132.008 28.7237 130.867 28.5187 129.856 28.1087C128.866 27.6987 128.015 27.116 127.305 26.3608C126.616 25.6055 126.078 24.6884 125.691 23.6095C125.325 22.5305 125.142 21.3221 125.142 19.9842C125.142 18.6463 125.325 17.4379 125.691 16.359C126.078 15.28 126.616 14.3629 127.305 13.6077C128.015 12.8524 128.866 12.2698 129.856 11.8598C130.867 11.4498 132.008 11.2448 133.278 11.2448C134.527 11.2448 135.657 11.4498 136.668 11.8598C137.68 12.2698 138.53 12.8524 139.219 13.6077C139.929 14.3629 140.467 15.28 140.833 16.359C141.221 17.4379 141.414 18.6463 141.414 19.9842C141.414 21.3221 141.221 22.5305 140.833 23.6095C140.467 24.6884 139.929 25.6055 139.219 26.3608C138.53 27.116 137.68 27.6987 136.668 28.1087C135.657 28.5187 134.527 28.7237 133.278 28.7237ZM133.278 25.5516C134.462 25.5516 135.398 25.1955 136.087 24.4834C136.776 23.7497 137.12 22.6816 137.12 21.279V18.6895C137.12 17.2869 136.776 16.2295 136.087 15.5174C135.398 14.7837 134.462 14.4169 133.278 14.4169C132.094 14.4169 131.158 14.7837 130.469 15.5174C129.78 16.2295 129.436 17.2869 129.436 18.6895V21.279C129.436 22.6816 129.78 23.7497 130.469 24.4834C131.158 25.1955 132.094 25.5516 133.278 25.5516Z" fill="white"/>
<path fill-rule="evenodd" clip-rule="evenodd" d="M6.2931 0V6.75926H0V32.4444H6.2931V39.2037H36.5V0H6.2931ZM29.7407 6.75875H13.5185V13.518H6.75924V25.6847H13.5185V32.4439H29.7407V25.6847H13.5185V13.518H29.7407V6.75875Z" fill="white"/>
</svg>
