<svg width="64" height="64" viewBox="0 0 64 64" fill="none" xmlns="http://www.w3.org/2000/svg">
<g clip-path="url(#clip0_1005_16694)">
<rect width="64" height="64" rx="32" fill="#111111"/>
<path fill-rule="evenodd" clip-rule="evenodd" d="M44.1604 50.0482L14.0804 50.0482L14.0804 19.9821L19.969 19.9821L19.969 13.8242L49.9204 13.8242L49.9204 43.7762L44.1604 43.7762L44.1604 50.0482ZM44.1606 19.8402L44.1606 43.7762L37.8886 43.7762L37.8886 38.0492L32.0447 38.0492L32.0447 31.7299L26.2402 31.7299L26.2402 43.7475L19.9714 43.7475L19.9714 19.9906L26.2402 19.9906L26.2402 25.3964L32.116 25.3964L32.116 31.7157L37.8886 31.7157L37.8886 19.8402L44.1606 19.8402Z" fill="#FFD700"/>
</g>
<defs>
<clipPath id="clip0_1005_16694">
<rect width="64" height="64" rx="32" fill="white"/>
</clipPath>
</defs>
</svg>
